<svg width="1920" height="1078" viewBox="0 0 1920 1078" fill="none" xmlns="http://www.w3.org/2000/svg">
<g clip-path="url(#clip0_2770_8476)">
<g clip-path="url(#clip1_2770_8476)">
<g filter="url(#filter0_f_2770_8476)">
<ellipse cx="1971" cy="68" rx="114" ry="210" fill="#0A0A0A" fill-opacity="0.75"/>
</g>
<g filter="url(#filter1_f_2770_8476)">
<ellipse cx="1839.5" cy="-31.5" rx="454.5" ry="136.5" fill="#0A0A0A" fill-opacity="0.75"/>
</g>
<path d="M1619.4 -54.4274L1589.9 4.93181L1571.92 1.82944L1601.42 -57.5297L1619.4 -54.4274ZM1641.69 -50.5829L1612.19 8.77632L1594.21 5.67395L1623.71 -53.6852L1641.69 -50.5829ZM1663.98 -46.7383L1634.48 12.6208L1616.49 9.51846L1645.99 -49.8407L1663.98 -46.7383ZM1686.26 -42.8938L1656.76 16.4653L1638.78 13.363L1668.28 -45.9962L1686.26 -42.8938ZM1708.55 -39.0493L1679.05 20.3099L1661.07 17.2075L1690.57 -42.1517L1708.55 -39.0493ZM1730.84 -35.2048L1701.34 24.1544L1683.35 21.052L1712.85 -38.3072L1730.84 -35.2048ZM1753.12 -31.3603L1723.62 27.9989L1705.64 24.8965L1735.14 -34.4627L1753.12 -31.3603ZM1775.41 -27.5158L1745.91 31.8434L1727.93 28.741L1757.43 -30.6182L1775.41 -27.5158ZM1797.7 -23.6713L1768.2 35.6879L1750.21 32.5855L1779.71 -26.7736L1797.7 -23.6713ZM1819.98 -19.8268L1790.48 39.5324L1772.5 36.43L1802 -22.9291L1819.98 -19.8268ZM1842.27 -15.9823L1812.77 43.3769L1794.79 40.2746L1824.29 -19.0846L1842.27 -15.9823ZM1864.56 -12.1377L1835.06 47.2214L1817.07 44.1191L1846.57 -15.2401L1864.56 -12.1377ZM1886.84 -8.29322L1857.34 51.0659L1839.36 47.9636L1868.86 -11.3956L1886.84 -8.29322ZM1909.13 -4.44871L1879.63 54.9105L1861.64 51.8081L1891.14 -7.55108L1909.13 -4.44871ZM1931.42 -0.604201L1901.92 58.755L1883.93 55.6526L1913.43 -3.70657L1931.42 -0.604201ZM1953.7 3.24031L1924.2 62.5995L1906.22 59.4971L1935.72 0.13794L1953.7 3.24031ZM1975.99 7.08482L1946.49 66.444L1928.5 63.3416L1958 3.98245L1975.99 7.08482ZM1998.28 10.9293L1968.78 70.2885L1950.79 67.1861L1980.29 7.82697L1998.28 10.9293ZM2020.56 14.7738L1991.06 74.133L1973.08 71.0306L2002.58 11.6715L2020.56 14.7738ZM2042.85 18.6184L2013.35 77.9775L1995.36 74.8752L2024.86 15.516L2042.85 18.6184ZM2065.14 22.4629L2035.64 81.822L2017.65 78.7197L2047.15 19.3605L2065.14 22.4629ZM2087.42 26.3074L2057.92 85.6666L2039.94 82.5642L2069.44 23.205L2087.42 26.3074Z" fill="url(#paint0_radial_2770_8476)" fill-opacity="0.5"/>
<g filter="url(#filter2_f_2770_8476)">
<path d="M1620.5 18.5C1620.5 18.5 1804.38 -48.733 1887.72 -16.9147L1979.64 -33L1915.91 194.131C1914.17 200.785 1913 204.5 1913 204.5L1915.91 194.131C1922.69 168.217 1938.14 97.7252 1927 28.5C1923.27 5.34153 1908.68 -8.91622 1887.72 -16.9147L1802.5 -2L1620.5 18.5Z" fill="black"/>
</g>
<g filter="url(#filter3_fn_2770_8476)">
<path d="M1931.29 -42.8729C1938.82 -34.8815 1942.75 -34.9235 1911 -4.99822C1870 24.0018 1857.42 73.4926 1816.31 65.4963C1771.68 70.1575 1828.42 26.7673 1860.17 -3.15798C1891.92 -33.0833 1923.76 -50.8643 1931.29 -42.8729Z" fill="url(#paint1_linear_2770_8476)" fill-opacity="0.76"/>
</g>
</g>
</g>
<g filter="url(#filter4_f_2770_8476)">
<path d="M1773.29 -5.73291C1774.68 -9.86474 1784.44 -19.2564 1812.36 -23.7683C1847.26 -29.4082 1873.21 -36.7971 1893.62 -15.3909C1914.03 6.01527 1909.72 31.9471 1926.74 42.4945C1943.75 53.0419 1958.36 45.8769 1972.2 52.2599C1986.05 58.6428 1994.41 53.051 2005.92 49.2696" stroke="url(#paint2_linear_2770_8476)" stroke-opacity="0.5" stroke-width="151"/>
</g>
<defs>
<filter id="filter0_f_2770_8476" x="1548" y="-451" width="846" height="1038" filterUnits="userSpaceOnUse" color-interpolation-filters="sRGB">
<feFlood flood-opacity="0" result="BackgroundImageFix"/>
<feBlend mode="normal" in="SourceGraphic" in2="BackgroundImageFix" result="shape"/>
<feGaussianBlur stdDeviation="154.5" result="effect1_foregroundBlur_2770_8476"/>
</filter>
<filter id="filter1_f_2770_8476" x="1076" y="-477" width="1527" height="891" filterUnits="userSpaceOnUse" color-interpolation-filters="sRGB">
<feFlood flood-opacity="0" result="BackgroundImageFix"/>
<feBlend mode="normal" in="SourceGraphic" in2="BackgroundImageFix" result="shape"/>
<feGaussianBlur stdDeviation="154.5" result="effect1_foregroundBlur_2770_8476"/>
</filter>
<filter id="filter2_f_2770_8476" x="1578.9" y="-74.6" width="442.341" height="320.7" filterUnits="userSpaceOnUse" color-interpolation-filters="sRGB">
<feFlood flood-opacity="0" result="BackgroundImageFix"/>
<feBlend mode="normal" in="SourceGraphic" in2="BackgroundImageFix" result="shape"/>
<feGaussianBlur stdDeviation="20.8" result="effect1_foregroundBlur_2770_8476"/>
</filter>
<filter id="filter3_fn_2770_8476" x="1699.84" y="-144.789" width="336.719" height="311.148" filterUnits="userSpaceOnUse" color-interpolation-filters="sRGB">
<feFlood flood-opacity="0" result="BackgroundImageFix"/>
<feBlend mode="normal" in="SourceGraphic" in2="BackgroundImageFix" result="shape"/>
<feGaussianBlur stdDeviation="50" result="effect1_foregroundBlur_2770_8476"/>
<feTurbulence type="fractalNoise" baseFrequency="5 5" stitchTiles="stitch" numOctaves="3" result="noise" seed="6503" />
<feColorMatrix in="noise" type="luminanceToAlpha" result="alphaNoise" />
<feComponentTransfer in="alphaNoise" result="coloredNoise1">
<feFuncA type="discrete" tableValues="0 0 0 0 0 0 0 0 0 0 1 1 1 1 1 1 1 1 1 1 1 1 1 1 1 1 1 1 1 1 1 1 1 1 1 1 1 1 1 1 0 0 0 0 0 0 0 0 0 0 0 0 0 0 0 0 0 0 0 0 0 0 0 0 0 0 0 0 0 0 0 0 0 0 0 0 0 0 0 0 0 0 0 0 0 0 0 0 0 0 0 0 0 0 0 0 0 0 0 0 "/>
</feComponentTransfer>
<feComposite operator="in" in2="effect1_foregroundBlur_2770_8476" in="coloredNoise1" result="noise1Clipped" />
<feComponentTransfer in="alphaNoise" result="coloredNoise2">
<feFuncA type="discrete" tableValues="0 0 0 0 0 0 0 0 0 0 0 0 0 0 0 0 0 0 0 0 0 0 0 0 0 0 0 0 0 0 0 0 0 0 0 0 0 0 0 0 0 0 0 0 0 0 0 0 0 0 0 0 0 0 0 0 0 0 0 0 1 1 1 1 1 1 1 1 1 1 1 1 1 1 1 1 1 1 1 1 1 1 1 1 1 1 1 1 1 1 0 0 0 0 0 0 0 0 0 0 "/>
</feComponentTransfer>
<feComposite operator="in" in2="effect1_foregroundBlur_2770_8476" in="coloredNoise2" result="noise2Clipped" />
<feFlood flood-color="rgba(0, 0, 0, 0.25)" result="color1Flood" />
<feComposite operator="in" in2="noise1Clipped" in="color1Flood" result="color1" />
<feFlood flood-color="rgba(255, 255, 255, 0.34)" result="color2Flood" />
<feComposite operator="in" in2="noise2Clipped" in="color2Flood" result="color2" />
<feMerge result="effect2_noise_2770_8476">
<feMergeNode in="effect1_foregroundBlur_2770_8476" />
<feMergeNode in="color1" />
<feMergeNode in="color2" />
</feMerge>
</filter>
<filter id="filter4_f_2770_8476" x="1601.73" y="-205.227" width="527.766" height="435.883" filterUnits="userSpaceOnUse" color-interpolation-filters="sRGB">
<feFlood flood-opacity="0" result="BackgroundImageFix"/>
<feBlend mode="normal" in="SourceGraphic" in2="BackgroundImageFix" result="shape"/>
<feGaussianBlur stdDeviation="50" result="effect1_foregroundBlur_2770_8476"/>
</filter>
<radialGradient id="paint0_radial_2770_8476" cx="0" cy="0" r="1" gradientTransform="matrix(308.032 28.187 -7.38124 98.2235 1851.2 -11.6886)" gradientUnits="userSpaceOnUse">
<stop stop-color="white" stop-opacity="0.13"/>
<stop offset="0.740385" stop-color="#999999" stop-opacity="0"/>
</radialGradient>
<linearGradient id="paint1_linear_2770_8476" x1="1806.56" y1="69.2855" x2="1928.59" y2="-45.7362" gradientUnits="userSpaceOnUse">
<stop stop-color="#D9D9D9"/>
<stop offset="1" stop-color="#737373" stop-opacity="0.08"/>
</linearGradient>
<linearGradient id="paint2_linear_2770_8476" x1="1814.01" y1="-32.5951" x2="1930.44" y2="49.2804" gradientUnits="userSpaceOnUse">
<stop stop-color="#FF4F81"/>
<stop offset="1" stop-color="#FF4F81" stop-opacity="0.25"/>
</linearGradient>
<clipPath id="clip0_2770_8476">
<rect width="1920" height="1080" fill="white" transform="translate(0 -2)"/>
</clipPath>
<clipPath id="clip1_2770_8476">
<rect width="1920" height="1080" fill="white" transform="translate(0 -2)"/>
</clipPath>
</defs>
</svg>
